<?xml version="1.0" encoding="UTF-8"?>
<svg version="1.1" xmlns="http://www.w3.org/2000/svg" width="770" height="902">
    <path
        d="M0 0 C236.28 0 472.56 0 716 0 C716 216.81 716 433.62 716 657 C732.5 657 749 657 766 657 C766 736.86 766 816.72 766 899 C622.12 899 478.24 899 330 899 C330 838.28 330 777.56 330 715 C221.1 715 112.2 715 0 715 C0 479.05 0 243.1 0 0 Z "
        fill="#000000" transform="translate(2,3)" />
    <path
        d="M0 0 C199.65 0 399.3 0 605 0 C605 90.09 605 180.18 605 273 C496.1 273 387.2 273 275 273 C275 382.56 275 492.12 275 605 C184.25 605 93.5 605 0 605 C0 405.35 0 205.7 0 0 Z "
        fill="#b3e5fc" transform="translate(58,58)" />
    <path
        d="M0 0 C90.75 0 181.5 0 275 0 C275 90.42 275 180.84 275 274 C184.25 274 93.5 274 0 274 C0 183.58 0 93.16 0 0 Z "
        fill="#03a9f4" transform="translate(388,386)" />
    <path
        d="M0 0 C1.13423556 -0.00260775 2.26847113 -0.00521549 3.43707746 -0.00790226 C5.32210669 -0.00455618 5.32210669 -0.00455618 7.24521732 -0.0011425 C8.58536591 -0.00229375 9.92551417 -0.0038813 11.26566178 -0.00586975 C14.96087123 -0.01006264 18.65605502 -0.00797255 22.3512646 -0.00488353 C26.33155758 -0.00262947 30.31184601 -0.00610909 34.2921381 -0.00886345 C42.0947848 -0.01332019 49.89742191 -0.01234507 57.700069 -0.00945081 C64.03962346 -0.00719624 70.37917523 -0.00688449 76.71872997 -0.00797462 C77.61958523 -0.00812786 78.52044048 -0.00828109 79.44859438 -0.00843897 C81.27843912 -0.00875868 83.10828386 -0.00908289 84.9381286 -0.00941156 C102.11448573 -0.01226611 119.29083753 -0.0089798 136.46719379 -0.00361119 C151.21653296 0.00085607 165.96586426 0.00008151 180.71520329 -0.00452995 C197.82680471 -0.00987746 214.93840145 -0.01199062 232.05000359 -0.00891769 C233.8735797 -0.00859913 235.69715581 -0.00828476 237.52073193 -0.00797462 C238.86671751 -0.00774321 238.86671751 -0.00774321 240.23989473 -0.00750712 C246.57389904 -0.00664244 252.9079004 -0.00810382 259.24190426 -0.01045418 C266.95805437 -0.01325436 274.6741943 -0.01250932 282.39034324 -0.00717343 C286.32987787 -0.00453926 290.2693955 -0.00352657 294.20893002 -0.00682259 C297.81179251 -0.0097914 301.41462219 -0.00818288 305.01748169 -0.00284503 C306.94580675 -0.00118994 308.87413407 -0.00447325 310.8024568 -0.00790226 C312.50772176 -0.00399064 312.50772176 -0.00399064 314.24743652 0 C315.23248608 0.00016235 316.21753563 0.0003247 317.23243517 0.00049198 C319.68663883 0.12584114 319.68663883 0.12584114 322.68663883 1.12584114 C322.68663883 62.50584114 322.68663883 123.88584114 322.68663883 187.12584114 C213.78663883 187.12584114 104.88663883 187.12584114 -7.31336117 187.12584114 C-7.31336117 125.74584114 -7.31336117 64.36584114 -7.31336117 1.12584114 C-4.73269873 -0.16449008 -2.89111576 0.00047658 0 0 Z "
        fill="#b3e5fc" transform="translate(393.3133611679077,714.8741588592529)" />
    <path
        d="M0 0 C56.1 0 112.2 0 170 0 C170 56.1 170 112.2 170 170 C113.9 170 57.8 170 0 170 C0 113.9 0 57.8 0 0 Z "
        fill="#000000" transform="translate(441,439)" />
</svg>